HIERARCHY
ROOT Hips
{
	OFFSET 0.000000 0.000000 0.000000
	CHANNELS 6 Xposition Yposition Zposition Zrotation Yrotation Xrotation 
	JOINT LHipJoint
	{
		OFFSET 0.000000 0.000000 0.000000
		CHANNELS 3 Zrotation Yrotation Xrotation
		JOINT LeftUpLeg
		{
			OFFSET 1.363060 -1.794630 0.839290
			CHANNELS 3 Zrotation Yrotation Xrotation
			JOINT LeftLeg
			{
				OFFSET 2.448110 -6.726130 0.000000
				CHANNELS 3 Zrotation Yrotation Xrotation
				JOINT LeftFoot
				{
					OFFSET 2.562200 -7.039590 0.000000
					CHANNELS 3 Zrotation Yrotation Xrotation
					JOINT LeftToeBase
					{
						OFFSET 0.157640 -0.433110 2.322550
						CHANNELS 3 Zrotation Yrotation Xrotation
						End Site
						{
							OFFSET 0.000000 0.000000 0.000000
						}
					}
				}
			}
		}
	}
	JOINT RHipJoint
	{
		OFFSET 0.000000 0.000000 0.000000
		CHANNELS 3 Zrotation Yrotation Xrotation
		JOINT RightUpLeg
		{
			OFFSET -1.305520 -1.794630 0.839290
			CHANNELS 3 Zrotation Yrotation Xrotation
			JOINT RightLeg
			{
				OFFSET -2.542530 -6.985550 0.000000
				CHANNELS 3 Zrotation Yrotation Xrotation
				JOINT RightFoot
				{
					OFFSET -2.568260 -7.056230 0.000000
					CHANNELS 3 Zrotation Yrotation Xrotation
					JOINT RightToeBase
					{
						OFFSET -0.164730 -0.452590 2.363150
						CHANNELS 3 Zrotation Yrotation Xrotation
						End Site
						{
							OFFSET 0.000000 0.000000 0.000000
						}
					}
				}
			}
		}
	}
}
MOTION
Frames: 30
Frame Time: 0.008333
-19.454768 15.708852 -0.529502 25.440116 87.130911 52.549189 -7.674751 -2.275380 3.672425 -3.494311 -8.766706 -69.718064 -0.328090 1.943314 40.804792 2.089247 10.569523 3.384108 2.922600 0.000000 -38.202100 11.930811 -3.896373 -1.730396 1.170069 -5.732603 4.594104 1.276875 -1.369408 15.009493 -0.231499 0.460363 8.823580 -0.008300 0.000000 -92.795400
-19.228891 15.734600 -0.550456 26.677184 87.197413 53.776161 -7.618524 -2.209719 3.539766 -4.075873 -8.650981 -69.255146 -0.338396 1.996913 41.838002 2.088619 10.458660 2.386554 2.693800 -0.000000 -37.913200 12.131704 -3.951085 -1.720510 0.803108 -6.031657 3.495876 1.037646 -1.628733 17.494369 -0.343822 0.323391 11.726617 0.045300 -0.000000 -92.797301
-19.006610 15.763707 -0.573128 27.868257 87.275588 54.938562 -7.572937 -2.134162 3.411570 -4.633381 -8.533498 -68.670821 -0.364748 2.034547 42.708840 2.084951 10.307018 1.241865 2.431700 -0.000000 -37.630199 12.324299 -3.961977 -1.728113 0.475842 -6.402577 2.243562 0.790424 -1.861996 20.215653 -0.502983 0.038182 14.606895 0.054600 0.000001 -91.736200
-18.788320 15.795910 -0.597256 29.091995 87.368135 56.119854 -7.533420 -2.049025 3.291579 -5.156514 -8.430284 -67.981756 -0.402432 2.056133 43.427342 2.081232 10.135742 0.011548 2.153600 0.000000 -37.355300 12.510477 -3.924251 -1.751987 0.190556 -6.836202 0.852352 0.548415 -2.063031 23.134862 -0.702563 -0.426997 17.351986 -0.019701 0.000000 -89.571800
-18.574340 15.831060 -0.622515 30.422457 87.476518 57.397572 -7.495764 -1.954286 3.182656 -5.638085 -8.353797 -67.202932 -0.447092 2.061931 44.001412 2.080166 9.965488 -1.245081 1.875200 -0.000001 -37.087501 12.690250 -3.837356 -1.791647 -0.047747 -7.317786 -0.656492 0.325004 -2.231539 26.203578 -0.931685 -1.104783 19.834002 -0.219700 0.000001 -86.423200
-18.364565 15.869255 -0.648434 31.927894 87.600299 58.842437 -7.456485 -1.849496 3.086502 -6.074508 -8.312101 -66.346272 -0.495153 2.052641 44.435490 2.083791 9.814403 -2.474623 1.608800 0.000001 -36.831900 12.862503 -3.705205 -1.847108 -0.233455 -7.828592 -2.259268 0.129644 -2.373360 29.367846 -1.177022 -2.018938 21.928556 -0.578700 0.000000 -82.579300
-18.158918 15.910649 -0.674732 33.619285 87.740129 60.468020 -7.417204 -1.736301 3.003866 -6.457961 -8.305702 -65.422812 -0.543515 2.029830 44.731954 2.092857 9.693621 -3.633903 1.362400 0.000000 -36.598699 13.020470 -3.536508 -1.918315 -0.351699 -8.342671 -3.930463 -0.034223 -2.498213 32.569394 -1.425955 -3.180216 23.533935 -1.112300 -0.000000 -78.443000
-17.957340 15.955511 -0.700516 35.578110 87.883463 62.354902 -7.371546 -1.610813 2.932139 -6.805975 -8.331461 -64.431077 -0.592664 1.994406 44.885047 2.107802 9.613601 -4.693228 1.141201 -0.000000 -36.386600 13.170222 -3.337897 -2.003362 -0.416465 -8.842891 -5.656883 -0.170814 -2.617486 35.771108 -1.667100 -4.551011 24.573787 -1.794300 -0.000000 -74.387500
-17.759367 16.004185 -0.725948 37.700065 88.032789 64.402727 -7.330076 -1.479162 2.870508 -7.102991 -8.376532 -63.380371 -0.640972 1.948806 44.893301 2.127019 9.570725 -5.634392 0.946300 -0.000000 -36.212100 13.297377 -3.121816 -2.099675 -0.401475 -9.294875 -7.420734 -0.286361 -2.739758 38.924441 -1.893503 -6.089074 25.017597 -2.580799 -0.000000 -70.715200
-17.564478 16.056894 -0.750590 39.947140 88.179492 66.574546 -7.294614 -1.342483 2.815710 -7.357318 -8.427480 -62.269545 -0.690109 1.894169 44.748914 2.148873 9.560655 -6.452630 0.776900 -0.000001 -36.074100 13.401204 -2.896313 -2.202776 -0.310815 -9.679176 -9.218047 -0.389237 -2.871281 42.004071 -2.099263 -7.705774 24.859284 -3.391400 -0.000000 -67.541300
-17.372187 16.113729 -0.774318 42.222282 88.318217 68.776092 -7.270005 -1.204352 2.764794 -7.572855 -8.468973 -61.098164 -0.741766 1.831260 44.444912 2.171193 9.573959 -7.152284 0.630799 0.000000 -35.972000 13.478183 -2.669276 -2.306695 -0.144863 -9.976476 -11.047005 -0.486193 -3.014445 44.983624 -2.280767 -9.305652 24.132133 -4.139500 0.000000 -64.918100
-17.182212 16.174686 -0.797093 44.407500 88.445310 70.890960 -7.260810 -1.069169 2.714842 -7.753157 -8.486066 -59.864792 -0.797782 1.760161 43.975414 2.191556 9.598172 -7.744450 0.504800 0.000000 -35.900699 13.525651 -2.447451 -2.405098 0.092882 -10.173122 -12.907890 -0.581247 -3.168993 47.839703 -2.434875 -10.791568 22.895084 -4.744200 -0.000000 -62.768200
-16.993899 16.239486 -0.818995 46.372154 88.559777 72.791032 -7.270409 -0.941791 2.662769 -7.901268 -8.466418 -58.568363 -0.859599 1.680379 43.338314 2.207681 9.620242 -8.244238 0.395600 0.000000 -35.852600 13.542324 -2.236280 -2.492339 0.396624 -10.261431 -14.800228 -0.675473 -3.332754 50.549648 -2.558821 -12.078792 21.232247 -5.146100 -0.000000 -60.962000
-16.806912 16.307842 -0.840176 47.975854 88.662420 74.337076 -7.301766 -0.826709 2.607062 -8.018276 -8.400648 -57.206809 -0.927974 1.590738 42.531884 2.217598 9.628518 -8.665473 0.300100 -0.000000 -35.820900 13.527133 -2.040374 -2.562051 0.759615 -10.236799 -16.720939 -0.767537 -3.501639 53.086114 -2.650743 -13.107581 19.253664 -5.320200 0.000000 -59.385800
-16.620691 16.379232 -0.860868 49.095176 88.756425 75.406225 -7.356239 -0.728002 2.545834 -8.103520 -8.283299 -55.779931 -1.002699 1.490223 41.560898 2.219750 9.613483 -9.021014 0.215800 0.000000 -35.797700 13.480213 -1.862246 -2.610395 1.173860 -10.101086 -18.663662 -0.854555 -3.671078 55.423446 -2.709820 -13.846130 17.085495 -5.276000 0.000000 -57.981800
-16.435206 16.453085 -0.881314 49.626525 88.845534 75.893827 -7.434577 -0.648218 2.478829 -8.155228 -8.113519 -54.287551 -1.082582 1.377893 40.432096 2.213239 9.570010 -9.318518 0.141599 0.000000 -35.777200 13.401876 -1.703261 -2.634818 1.631160 -9.862034 -20.619837 -0.933066 -3.836327 57.537159 -2.736190 -14.288074 14.854047 -5.050801 0.000000 -56.675600
-16.249831 16.528745 -0.901702 49.493335 88.933462 75.722071 -7.536838 -0.588782 2.406057 -8.170513 -7.894541 -52.731554 -1.165577 1.253473 39.156520 2.197757 9.496821 -9.561662 0.076900 -0.000000 -35.754800 13.292587 -1.563068 -2.635352 2.123376 -9.532290 -22.578084 -0.999943 -3.992918 59.405346 -2.731846 -14.452015 12.681904 -4.700400 0.000000 -55.450100
-16.064684 16.605546 -0.922188 48.652855 89.022383 74.844941 -7.662743 -0.549237 2.328820 -8.147281 -7.633573 -51.114442 -1.248981 1.117415 37.747602 2.173738 9.397609 -9.749363 0.022200 -0.000000 -35.727200 13.152771 -1.440269 -2.613615 2.642860 -9.128814 -24.525824 -1.052952 -4.136887 61.010542 -2.700311 -14.373947 10.669432 -4.284600 0.000000 -54.295300
-15.879520 16.682829 -0.942821 47.084891 89.112727 73.238834 -7.812159 -0.527849 2.249177 -8.083863 -7.340833 -49.439763 -1.329739 0.970981 36.220500 2.142160 9.279510 -9.877762 -0.021499 -0.000000 -35.693100 12.982398 -1.332925 -2.572726 3.183069 -8.670422 -26.448200 -1.090771 -4.264739 62.338733 -2.646600 -14.101679 8.890259 -3.856100 0.000000 -53.214400
-15.694143 16.759840 -0.963498 44.798239 89.202935 70.908954 -7.983904 -0.521517 2.168708 -7.981798 -7.028321 -47.712652 -1.404921 0.816408 34.592954 2.104519 9.152470 -9.942345 -0.053400 -0.000000 -35.651100 12.782302 -1.237831 -2.517446 3.736736 -8.176626 -28.330841 -1.112953 -4.373858 63.382526 -2.576557 -13.687142 7.385531 -3.453700 -0.000000 -52.257201
-15.508463 16.835869 -0.984060 41.818500 89.289521 67.877632 -8.176605 -0.526032 2.089283 -7.844499 -6.708755 -45.938916 -1.471954 0.656608 32.882864 2.062670 9.027880 -9.939447 -0.072800 -0.000001 -35.601100 12.553503 -1.151578 -2.452907 4.296634 -7.665137 -30.158931 -1.119474 -4.462207 64.139914 -2.495794 -13.178654 6.160031 -3.098300 -0.000000 -51.448000
-15.322303 16.910271 -1.004249 38.172958 89.367578 64.168098 -8.388713 -0.536093 2.013393 -7.677176 -6.393580 -44.124198 -1.528896 0.494837 31.106364 2.018558 8.916828 -9.867196 -0.079500 0.000000 -35.545600 12.297413 -1.070897 -2.383239 4.855838 -7.150229 -31.917899 -1.110349 -4.528033 64.612428 -2.409052 -12.616479 5.188616 -2.796300 -0.000000 -50.808401
-15.135569 16.982268 -1.023772 33.892396 89.430309 59.809150 -8.617091 -0.545774 1.941966 -7.488436 -6.091749 -42.276233 -1.574820 0.334939 29.281942 1.974033 8.828131 -9.728764 -0.074200 0.000000 -35.486000 12.017327 -0.991159 -2.312718 5.404839 -6.642150 -33.596616 -1.085787 -4.570535 64.810404 -2.319504 -12.028592 4.420612 -2.542500 0.000000 -50.342100
-14.948048 17.051214 -1.042357 28.954019 89.469877 54.775783 -8.859441 -0.548761 1.876652 -7.285778 -5.808127 -40.402147 -1.609413 0.180642 27.424393 1.930755 8.768230 -9.530172 -0.058000 -0.000000 -35.427300 11.716103 -0.907970 -2.243733 5.936062 -6.145971 -35.184603 -1.045838 -4.588600 64.745012 -2.228849 -11.431980 3.794848 -2.326500 0.000000 -50.039400
-14.759399 17.116415 -1.059678 23.321594 89.473358 49.034379 -9.109687 -0.536703 1.819771 -7.080216 -5.546852 -38.513747 -1.633408 0.035256 25.545960 1.890801 8.743647 -9.280755 -0.032300 0.000000 -35.374200 11.400615 -0.813869 -2.175654 6.437178 -5.660067 -36.682031 -0.991225 -4.581301 64.434413 -2.137239 -10.831471 3.248621 -2.136000 0.000000 -49.876000
-14.570084 17.176981 -1.075854 16.624744 89.427384 42.205709 -9.369339 -0.503397 1.766996 -6.872045 -5.289252 -36.618607 -1.647914 -0.094482 23.675124 1.853064 8.740572 -9.001209 -0.001100 -0.000000 -35.336500 11.071273 -0.700959 -2.113483 6.911042 -5.181452 -38.071310 -0.922785 -4.546084 63.897339 -2.043610 -10.225578 2.723617 -1.959500 0.000000 -49.816400
-14.379129 17.232474 -1.090544 8.641115 89.302030 34.081929 -9.618855 -0.430426 1.726005 -6.669089 -5.040499 -34.737297 -1.654615 -0.206557 21.808731 1.821802 8.772973 -8.700165 0.035400 -0.000000 -35.322401 10.748480 -0.550249 -2.047622 7.345258 -4.691541 -39.371356 -0.843303 -4.478856 63.152495 -1.946844 -9.607654 2.189483 -1.790700 0.000000 -49.829700
-14.187103 17.282061 -1.104048 -1.551938 89.066761 23.732049 -9.833284 -0.296852 1.689978 -6.457616 -4.765621 -32.882914 -1.656491 -0.292809 19.977224 1.796046 8.819379 -8.404692 0.072300 -0.000000 -35.345000 10.459517 -0.336273 -1.978321 7.758854 -4.173171 -40.565648 -0.755567 -4.374119 62.217401 -1.845426 -8.973125 1.627707 -1.626100 0.000000 -49.880900
-13.993935 17.325158 -1.116434 -14.936315 88.721490 10.177058 -9.938720 -0.083466 1.648509 -6.211334 -4.445213 -31.069352 -1.658156 -0.354644 18.205545 1.775237 8.860633 -8.133390 0.106400 -0.000000 -35.418100 10.278114 -0.041380 -1.893932 8.183378 -3.612629 -41.655155 -0.656770 -4.239990 61.095270 -1.739587 -8.324401 1.046231 -1.467000 0.000000 -49.940100
-13.799077 17.361366 -1.127592 -31.061379 88.405767 -6.110658 -9.875170 0.150939 1.584767 -5.923964 -4.128587 -29.299277 -1.661587 -0.421719 16.525929 1.753008 8.872654 -7.883775 0.137100 0.000000 -35.548301 10.258012 0.255495 -1.774241 8.625204 -3.056683 -42.691954 -0.524516 -4.129219 59.768292 -1.634043 -7.675878 0.469987 -1.318200 -0.000000 -50.014100
